PathFileType	3	(X/Y/Z)	F:\ViconData\AntennenMessung\Messung1\Session1\ID07.trc
DataRate	CameraRate	NumFrames	NumMarkers	Units	OrigDataRate	OrigDataStartFrame	OrigNumFrames
120.0	120.0	4	70	mm	120.0	750	856	
Frame#	Time	Ashort			Along			Atop			A4			Bshort			Blong			Btop			B4			Cshort			Clong			Ctop			C4			Dshort			Dlong			Dtop			D4			Eshort			Elong			Etop			E4			Fshort			Flong			Ftop			F4			Gshort			Glong			Gtop			G4			Hshort			Hlong			Htop			H4			I1			I2			I3			I4			I5			WandAshort			WandAlong			WandAtop			WandA4			WandA15			WandBshort			WandB4			WandB5			WandBtop			WandBlong			WandCshort			WandClong			WandCtop			WandC4			WandC5			Acenter			Aantenna			Bcenter			Bantenna			Ccenter			Cantenna			Dcenter			Dantenna			Ecenter			Eantenna			Fcenter			Fantenna			Gcenter			Gantenna			Hcenter			Hantenna			Icenter			Iantenna			
		X1	Y1	Z1	X2	Y2	Z2	X3	Y3	Z3	X4	Y4	Z4	X5	Y5	Z5	X6	Y6	Z6	X7	Y7	Z7	X8	Y8	Z8	X9	Y9	Z9	X10	Y10	Z10	X11	Y11	Z11	X12	Y12	Z12	X13	Y13	Z13	X14	Y14	Z14	X15	Y15	Z15	X16	Y16	Z16	X17	Y17	Z17	X18	Y18	Z18	X19	Y19	Z19	X20	Y20	Z20	X21	Y21	Z21	X22	Y22	Z22	X23	Y23	Z23	X24	Y24	Z24	X25	Y25	Z25	X26	Y26	Z26	X27	Y27	Z27	X28	Y28	Z28	X29	Y29	Z29	X30	Y30	Z30	X31	Y31	Z31	X32	Y32	Z32	X33	Y33	Z33	X34	Y34	Z34	X35	Y35	Z35	X36	Y36	Z36	X37	Y37	Z37	X38	Y38	Z38	X39	Y39	Z39	X40	Y40	Z40	X41	Y41	Z41	X42	Y42	Z42	X43	Y43	Z43	X44	Y44	Z44	X45	Y45	Z45	X46	Y46	Z46	X47	Y47	Z47	X48	Y48	Z48	X49	Y49	Z49	X50	Y50	Z50	X51	Y51	Z51	X52	Y52	Z52	X53	Y53	Z53	X54	Y54	Z54	X55	Y55	Z55	X56	Y56	Z56	X57	Y57	Z57	X58	Y58	Z58	X59	Y59	Z59	X60	Y60	Z60	X61	Y61	Z61	X62	Y62	Z62	X63	Y63	Z63	X64	Y64	Z64	X65	Y65	Z65	X66	Y66	Z66	X67	Y67	Z67	X68	Y68	Z68	X69	Y69	Z69	X70	Y70	Z70	
750	6.2416667	-1038.2286	214.61104	-1644.1506	-1109.3319	203.83902	-1599.4835	-1063.4403	172.98509	-1625.9487	-1054.1876	262.20752	-1634.9043	-1352.7878	235.02136	1003.851	-1281.3182	227.43243	1052.2107	-1322.8475	194.15916	1020.7562	-1284.3422	287.95328	1052.5458	814.04114	187.69568	1209.4595	892.39233	178.1951	1179.2021	844.60907	145.39635	1198.2649	861.39838	292.45337	1168.5022	1115.8973	209.96271	-1401.8185	1056.2954	194.07166	-1460.1401	1095.2211	162.40094	-1423.814	1069.8024	238.85049	-1425.9409	-1204.5354	1686.0309	-1563.3103	-1129.1392	1688.2634	-1606.0488	-1173.1307	1724.4862	-1582.0046	-1133.4973	1581.1178	-1603.6002	-1239.5864	1698.9828	1119.3624	-1309.4084	1698.8038	1071.9214	-1270.4572	1736.2281	1096.8689	-1245.6348	1592.7499	1110.6371	988.80267	1664.2102	1162.2648	957.30902	1700.5176	1183.7539	921.95831	1662.3409	1214.8804	939.80505	1659.3993	1159.8975	999.2627	1668.4537	-1579.3843	1058.9071	1670.0178	-1518.717	1025.1213	1708.0583	-1551.1455	1059.3866	1672.2567	-1585.6105	354.79849	169.21783	20.101543	349.21811	177.2139	103.65174	352.42215	132.43854	61.693123	385.11426	173.60245	57.896076	304.93643	171.90573	53.960602																																														-1068.5282	210.02069	-1625.1163	-1073.8347	248.64822	-1624.2482	-1321.6685	231.717	1024.9077	-1320.4524	270.46204	1029.1904	848.42755	183.52609	1196.1802	852.30798	222.2747	1194.0618	1088.8439	202.74973	-1428.2908	1082.7916	241.0423	-1432.5393	-1171.9077	1686.9969	-1581.8052	-1170.636	1648.0182	-1581.5979	-1271.0973	1698.902	1097.952	-1271.766	1659.9242	1099.0831	952.80835	1705.7059	1186.8248	972.80725	1733.8177	1168.6376	1026.5907	1669.1703	-1551.5875	1028.0632	1630.2007	-1552.0304	352.27936	172.82745	57.818226	352.14212	211.64896	54.093704
751	6.25	-1038.2379	214.56671	-1644.1345	-1109.3315	203.91747	-1599.5259	-1063.4377	172.96548	-1625.9612	-1054.1431	262.22675	-1634.9106	-1352.6919	235.26785	1003.8496	-1281.3345	227.40999	1052.2452	-1322.882	194.17688	1020.7561	-1284.4663	287.8638	1052.7139	814.02118	187.62762	1209.4641	892.23315	178.2243	1179.1024	844.54749	145.40982	1198.2877	861.48151	292.59552	1169.3309	1115.9078	209.97949	-1401.8158	1056.3138	194.07173	-1460.1532	1095.1637	162.30162	-1423.7877	1069.7872	238.84987	-1425.938	-1204.5311	1686.0132	-1563.3062	-1129.1449	1688.2806	-1606.0614	-1173.1442	1724.4899	-1582.005	-1133.4802	1581.1107	-1603.5764	-1239.583	1699.0001	1119.3678	-1309.4043	1698.8118	1071.9222	-1270.488	1736.2687	1096.8762	-1245.6945	1592.8778	1110.6708	988.8042	1664.2064	1162.2559	957.3512	1700.4165	1183.8444	921.86212	1662.2872	1214.8442	939.8302	1659.4043	1159.8556	999.26459	1668.459	-1579.3757	1058.8998	1670.0211	-1518.7156	1025.1172	1708.0554	-1551.1465	1059.3839	1672.2523	-1585.6122	354.76578	169.16389	20.113403	349.22473	177.19763	103.67196	352.41531	132.45277	61.579411	385.12881	173.58876	57.928337	304.91391	171.91431	53.975525																																														-1068.485	210.03592	-1625.1554	-1073.7454	248.67041	-1624.3159	-1321.5791	231.84172	1024.9507	-1320.2391	270.57919	1029.2648	848.3006	183.50626	1196.1569	852.11823	222.25838	1193.9893	1088.818	202.74825	-1428.3344	1082.8101	241.0415	-1432.639	-1171.9056	1686.9944	-1581.8097	-1170.6182	1648.0162	-1581.6066	-1271.1119	1698.915	1097.9429	-1271.7632	1659.9363	1099.0559	952.7489	1705.7148	1187.0032	972.78333	1733.8839	1168.9442	1026.5836	1669.1746	-1551.587	1028.0536	1630.2048	-1552.0284	352.27371	172.77698	57.693047	352.13739	211.59688	53.951664
752	6.2583333	-1038.2423	214.64516	-1644.1556	-1109.3259	203.86426	-1599.4861	-1063.4358	173.00154	-1625.9	-1054.1472	262.20804	-1634.8956	-1352.8022	235.21474	1003.843	-1281.3356	227.40091	1052.2574	-1322.8984	194.12637	1020.8275	-1284.5328	287.84583	1052.7136	813.85162	187.70602	1209.3887	892.45935	178.25517	1179.1069	844.5567	145.37906	1198.3031	861.33984	292.47684	1168.5658	1115.9078	209.99355	-1401.8276	1056.2915	194.06584	-1460.1462	1095.2126	162.40132	-1423.7747	1069.7765	238.89958	-1425.9766	-1204.5466	1686.0264	-1563.297	-1129.1959	1688.4309	-1606.5852	-1173.144	1724.4982	-1581.999	-1133.4763	1581.0775	-1603.5454	-1239.5841	1698.9956	1119.3688	-1309.3252	1698.6528	1071.8676	-1270.4691	1736.2343	1096.8665	-1245.6299	1592.7504	1110.6301	988.79095	1664.1951	1162.2454	957.40137	1700.4639	1183.7977	921.87964	1662.2969	1214.833	939.78589	1659.4009	1159.8618	999.25891	1668.4614	-1579.3726	1059.0394	1670.2031	-1518.6896	1025.1201	1708.0647	-1551.1602	1059.3901	1672.265	-1585.6	354.76697	169.17139	20.116411	349.23364	177.22702	103.67248	352.45944	132.52608	61.502869	385.14395	173.58311	57.90947	304.55121	172.45108	53.713261																																														-1068.5557	210.04767	-1625.1063	-1073.8937	248.67177	-1624.2789	-1321.5948	231.80266	1024.9841	-1320.2544	270.54456	1029.2583	848.30505	183.56374	1196.1162	852.10901	222.31427	1193.8969	1088.8511	202.7648	-1428.2953	1082.8162	241.05562	-1432.584	-1171.9601	1687.066	-1582.0177	-1170.7273	1648.0856	-1582.037	-1271.0258	1698.8409	1097.9536	-1271.6061	1659.8618	1099.0869	952.86511	1705.7052	1186.9122	972.93909	1733.8273	1168.8239	1026.6572	1669.2595	-1551.5607	1028.2008	1630.2922	-1551.9628	352.28403	172.78612	57.609795	352.11493	211.60469	53.856106
753	6.2666667	-1038.2229	214.509	-1644.1047	-1109.3573	203.84061	-1599.4891	-1063.4645	172.9888	-1625.9226	-1054.1433	262.24042	-1634.8962	-1352.7655	235.22717	1003.8775	-1281.442	227.27727	1052.2939	-1322.8955	194.14859	1020.7216	-1284.5214	287.84399	1052.7582	814.04193	187.78119	1209.4645	892.4646	178.33681	1179.0403	844.54388	145.43311	1198.3027	861.34686	292.43314	1168.5229	1115.8982	209.95866	-1401.8175	1056.2943	194.06065	-1460.1427	1095.1451	162.32709	-1423.783	1069.7855	238.87732	-1425.9326	-1204.5404	1686.0208	-1563.3007	-1129.1697	1688.3877	-1606.5491	-1173.1407	1724.4734	-1581.9961	-1133.5481	1581.1354	-1603.6342	-1239.5953	1699.016	1119.3784	-1309.4451	1698.8755	1071.9515	-1270.4845	1736.2727	1096.8783	-1245.6348	1592.7429	1110.6284	988.83875	1664.226	1162.2697	957.39282	1700.4822	1183.8102	921.89191	1662.3173	1214.826	939.90002	1659.4125	1159.8726	999.26294	1668.4617	-1579.3942	1058.8981	1670.0239	-1518.7208	1025.1074	1708.059	-1551.1512	1059.3685	1672.2485	-1585.6018	354.78625	169.1718	20.126989	349.23575	177.20703	103.67874	352.44531	132.39856	61.586639	385.12622	173.59863	57.930561	304.55844	172.46564	53.73872																																														-1068.5028	209.96777	-1625.113	-1073.7665	248.60167	-1624.2675	-1321.6211	231.75572	1025.0192	-1320.3088	270.4816	1029.4447	848.31805	183.65332	1196.1669	852.14471	222.40468	1194.0015	1088.8108	202.73372	-1428.3236	1082.8077	241.02791	-1432.6271	-1171.9637	1687.0437	-1581.9933	-1170.7379	1648.063	-1581.9905	-1271.1426	1698.9524	1097.9583	-1271.8301	1659.9749	1099.0861	952.83905	1705.7323	1186.9294	972.89679	1733.8708	1168.8489	1026.582	1669.1771	-1551.5995	1028.0599	1630.2078	-1552.0488	352.29068	172.78448	57.692417	352.14206	211.60414	53.949223
